<svg width="184" height="368" viewBox="0 0 184 368" xmlns="http://www.w3.org/2000/svg">
  <title>NOX lightning bolt — standalone, transparent background, sealed</title>
  <defs>
    <linearGradient id="boltBase" x1="0%" y1="0%" x2="100%" y2="0%">
      <stop offset="0%" stop-color="#5C000A"></stop>
      <stop offset="100%" stop-color="#A80016"></stop>
    </linearGradient>
    <linearGradient id="boltDark" x1="0%" y1="0%" x2="100%" y2="0%">
      <stop offset="0%" stop-color="#2A0005"></stop>
      <stop offset="100%" stop-color="#8A0012"></stop>
    </linearGradient>
    <linearGradient id="boltLight" x1="0%" y1="0%" x2="100%" y2="0%">
      <stop offset="0%" stop-color="#D8141C"></stop>
      <stop offset="100%" stop-color="#780010"></stop>
    </linearGradient>
    <linearGradient id="boltBlend" x1="0%" y1="0%" x2="100%" y2="0%">
      <stop offset="0%" stop-color="#000000" stop-opacity="0.3"></stop>
      <stop offset="100%" stop-color="#000000" stop-opacity="0"></stop>
    </linearGradient>
    <linearGradient id="boltSpine" x1="0%" y1="0%" x2="0%" y2="100%">
      <stop offset="0%" stop-color="#FF4848" stop-opacity="0.5"></stop>
      <stop offset="100%" stop-color="#FF2828" stop-opacity="0"></stop>
    </linearGradient>
  </defs>
  <g transform="translate(76 184) scale(2)">
    <path d="M -6 -92 L 36 -92 L 8 -18 L 44 -18 L -22 92 L 4 8 L -32 8 Z" fill="url(#boltBase)"></path>
    <path d="M -6 -92 L 15 -92 L -9 -18 L 15 -18 L -22 92 L -8 8 L -32 8 Z" fill="url(#boltDark)"></path>
    <path d="M 15 -92 L 36 -92 L 8 -18 L 44 -18 L -22 92 L 15 8 L -8 8 L 15 -18 L -9 -18 Z" fill="url(#boltLight)"></path>
    <path d="M 15 -92 L 20 -92 L -4 -18 L 20 -18 L -18 88 L 15 8 L -8 8 L 15 -18 L -9 -18 Z" fill="url(#boltBlend)" opacity="0.6"></path>
    <path d="M 14 -90 L 17 -90 L -7 -18 L 16 -18 L -20 88 L 14 -18 L -9 -18 Z" fill="url(#boltSpine)"></path>
    <path d="M -6 -92 L 36 -92 L 8 -18 L 44 -18 L -22 92 L 4 8 L -32 8 Z" fill="none" stroke="#0A0001" stroke-width="0.4" stroke-linejoin="miter"></path>
  </g>
</svg>